<?xml version="1.0" encoding="UTF-8" standalone="no"?>
<svg
   width="604.98126pt"
   height="317.95624pt"
   viewBox="0 0 604.98126 317.95624"
   version="1.1"
   id="svg8537"
   sodipodi:docname="stackoverflow-finetune-loss.svg"
   inkscape:version="1.1.2 (0a00cf5339, 2022-02-04)"
   xmlns:inkscape="http://www.inkscape.org/namespaces/inkscape"
   xmlns:sodipodi="http://sodipodi.sourceforge.net/DTD/sodipodi-0.dtd"
   xmlns:xlink="http://www.w3.org/1999/xlink"
   xmlns="http://www.w3.org/2000/svg"
   xmlns:svg="http://www.w3.org/2000/svg"
   xmlns:rdf="http://www.w3.org/1999/02/22-rdf-syntax-ns#"
   xmlns:cc="http://creativecommons.org/ns#"
   xmlns:dc="http://purl.org/dc/elements/1.1/">
  <sodipodi:namedview
     id="namedview8539"
     pagecolor="#ffffff"
     bordercolor="#666666"
     borderopacity="1.0"
     inkscape:pageshadow="2"
     inkscape:pageopacity="0.0"
     inkscape:pagecheckerboard="0"
     inkscape:document-units="pt"
     showgrid="false"
     fit-margin-top="5"
     fit-margin-left="5"
     fit-margin-right="5"
     fit-margin-bottom="5"
     inkscape:zoom="1.3020833"
     inkscape:cx="182.784"
     inkscape:cy="188.928"
     inkscape:window-width="2554"
     inkscape:window-height="1365"
     inkscape:window-x="1920"
     inkscape:window-y="32"
     inkscape:window-maximized="1"
     inkscape:current-layer="svg8537" />
  <metadata
     id="metadata8107">
    <rdf:RDF>
      <cc:Work>
        <dc:type
           rdf:resource="http://purl.org/dc/dcmitype/StillImage" />
        <dc:date>2024-10-15T17:27:15.620909</dc:date>
        <dc:format>image/svg+xml</dc:format>
        <dc:creator>
          <cc:Agent>
            <dc:title>Matplotlib v3.8.4, https://matplotlib.org/</dc:title>
          </cc:Agent>
        </dc:creator>
      </cc:Work>
    </rdf:RDF>
  </metadata>
  <defs
     id="defs8111">
    <style
       type="text/css"
       id="style8109">*{stroke-linejoin: round; stroke-linecap: butt}</style>
  </defs>
  <g
     id="axes_1"
     transform="translate(-48.418749,-37.8)">
    <g
       id="patch_2">
      <path
         d="M 90,320.4 H 648 V 43.2 H 90 Z"
         style="fill:#ffffff"
         id="path8116" />
    </g>
    <g
       id="matplotlib.axis_1">
      <g
         id="xtick_1">
        <g
           id="line2d_1">
          <defs
             id="defs8120">
            <path
               id="m8b74ea2cea"
               d="M 0,0 V 3.5"
               style="stroke:#000000;stroke-width:0.8" />
          </defs>
          <g
             id="g8124">
            <use
               xlink:href="#m8b74ea2cea"
               x="90"
               y="320.39999"
               style="stroke:#000000;stroke-width:0.8"
               id="use8122"
               width="100%"
               height="100%" />
          </g>
        </g>
        <g
           id="text_1">
          <!-- 0 -->
          <g
             transform="matrix(0.1,0,0,-0.1,86.81875,334.99844)"
             id="g8132">
            <defs
               id="defs8128">
              <path
                 id="DejaVuSans-30"
                 d="m 2034,4250 q -487,0 -733,-480 -245,-479 -245,-1442 0,-959 245,-1439 246,-480 733,-480 491,0 736,480 246,480 246,1439 0,963 -246,1442 -245,480 -736,480 z m 0,500 q 785,0 1199,-621 414,-620 414,-1801 0,-1178 -414,-1799 -414,-620 -1199,-620 -784,0 -1198,620 -414,621 -414,1799 0,1181 414,1801 414,621 1198,621 z"
                 transform="scale(0.015625)" />
            </defs>
            <use
               xlink:href="#DejaVuSans-30"
               id="use8130"
               x="0"
               y="0"
               width="100%"
               height="100%" />
          </g>
        </g>
      </g>
      <g
         id="xtick_2">
        <g
           id="line2d_2">
          <g
             id="g8138">
            <use
               xlink:href="#m8b74ea2cea"
               x="165.40541"
               y="320.39999"
               style="stroke:#000000;stroke-width:0.8"
               id="use8136"
               width="100%"
               height="100%" />
          </g>
        </g>
        <g
           id="text_2">
          <!-- 20 -->
          <g
             transform="matrix(0.1,0,0,-0.1,159.0429,334.99844)"
             id="g8148">
            <defs
               id="defs8142">
              <path
                 id="DejaVuSans-32"
                 d="M 1228,531 H 3431 V 0 H 469 v 531 q 359,372 979,998 621,627 780,809 303,340 423,576 121,236 121,464 0,372 -261,606 -261,235 -680,235 -297,0 -627,-103 -329,-103 -704,-313 v 638 q 381,153 712,231 332,78 607,78 725,0 1156,-363 431,-362 431,-968 0,-288 -108,-546 -107,-257 -392,-607 -78,-91 -497,-524 Q 1991,1309 1228,531 Z"
                 transform="scale(0.015625)" />
            </defs>
            <use
               xlink:href="#DejaVuSans-32"
               id="use8144"
               x="0"
               y="0"
               width="100%"
               height="100%" />
            <use
               xlink:href="#DejaVuSans-30"
               x="63.623047"
               id="use8146"
               y="0"
               width="100%"
               height="100%" />
          </g>
        </g>
      </g>
      <g
         id="xtick_3">
        <g
           id="line2d_3">
          <g
             id="g8154">
            <use
               xlink:href="#m8b74ea2cea"
               x="240.81081"
               y="320.39999"
               style="stroke:#000000;stroke-width:0.8"
               id="use8152"
               width="100%"
               height="100%" />
          </g>
        </g>
        <g
           id="text_3">
          <!-- 40 -->
          <g
             transform="matrix(0.1,0,0,-0.1,234.44831,334.99844)"
             id="g8164">
            <defs
               id="defs8158">
              <path
                 id="DejaVuSans-34"
                 d="M 2419,4116 825,1625 h 1594 z m -166,550 h 794 V 1625 h 666 V 1100 H 3047 V 0 H 2419 V 1100 H 313 v 609 z"
                 transform="scale(0.015625)" />
            </defs>
            <use
               xlink:href="#DejaVuSans-34"
               id="use8160"
               x="0"
               y="0"
               width="100%"
               height="100%" />
            <use
               xlink:href="#DejaVuSans-30"
               x="63.623047"
               id="use8162"
               y="0"
               width="100%"
               height="100%" />
          </g>
        </g>
      </g>
      <g
         id="xtick_4">
        <g
           id="line2d_4">
          <g
             id="g8170">
            <use
               xlink:href="#m8b74ea2cea"
               x="316.21622"
               y="320.39999"
               style="stroke:#000000;stroke-width:0.8"
               id="use8168"
               width="100%"
               height="100%" />
          </g>
        </g>
        <g
           id="text_4">
          <!-- 60 -->
          <g
             transform="matrix(0.1,0,0,-0.1,309.85372,334.99844)"
             id="g8180">
            <defs
               id="defs8174">
              <path
                 id="DejaVuSans-36"
                 d="m 2113,2584 q -425,0 -674,-291 -248,-290 -248,-796 0,-503 248,-796 249,-292 674,-292 425,0 673,292 248,293 248,796 0,506 -248,796 -248,291 -673,291 z m 1253,1979 v -575 q -238,112 -480,171 -242,60 -480,60 -625,0 -955,-422 -329,-422 -376,-1275 184,272 462,417 279,145 613,145 703,0 1111,-427 408,-426 408,-1160 0,-719 -425,-1154 -425,-434 -1131,-434 -810,0 -1238,620 -428,621 -428,1799 0,1106 525,1764 525,658 1409,658 238,0 480,-47 242,-47 505,-140 z"
                 transform="scale(0.015625)" />
            </defs>
            <use
               xlink:href="#DejaVuSans-36"
               id="use8176"
               x="0"
               y="0"
               width="100%"
               height="100%" />
            <use
               xlink:href="#DejaVuSans-30"
               x="63.623047"
               id="use8178"
               y="0"
               width="100%"
               height="100%" />
          </g>
        </g>
      </g>
      <g
         id="xtick_5">
        <g
           id="line2d_5">
          <g
             id="g8186">
            <use
               xlink:href="#m8b74ea2cea"
               x="391.62161"
               y="320.39999"
               style="stroke:#000000;stroke-width:0.8"
               id="use8184"
               width="100%"
               height="100%" />
          </g>
        </g>
        <g
           id="text_5">
          <!-- 80 -->
          <g
             transform="matrix(0.1,0,0,-0.1,385.25912,334.99844)"
             id="g8196">
            <defs
               id="defs8190">
              <path
                 id="DejaVuSans-38"
                 d="m 2034,2216 q -450,0 -708,-241 -257,-241 -257,-662 0,-422 257,-663 258,-241 708,-241 450,0 709,242 260,243 260,662 0,421 -258,662 -257,241 -711,241 z m -631,268 q -406,100 -633,378 -226,279 -226,679 0,559 398,884 399,325 1092,325 697,0 1094,-325 397,-325 397,-884 0,-400 -227,-679 -226,-278 -629,-378 456,-106 710,-416 255,-309 255,-755 Q 3634,634 3220,271 2806,-91 2034,-91 1263,-91 848,271 434,634 434,1313 q 0,446 256,755 257,310 713,416 z m -231,997 q 0,-362 226,-565 227,-203 636,-203 407,0 636,203 230,203 230,565 0,363 -230,566 -229,203 -636,203 -409,0 -636,-203 -226,-203 -226,-566 z"
                 transform="scale(0.015625)" />
            </defs>
            <use
               xlink:href="#DejaVuSans-38"
               id="use8192"
               x="0"
               y="0"
               width="100%"
               height="100%" />
            <use
               xlink:href="#DejaVuSans-30"
               x="63.623047"
               id="use8194"
               y="0"
               width="100%"
               height="100%" />
          </g>
        </g>
      </g>
      <g
         id="xtick_6">
        <g
           id="line2d_6">
          <g
             id="g8202">
            <use
               xlink:href="#m8b74ea2cea"
               x="467.02704"
               y="320.39999"
               style="stroke:#000000;stroke-width:0.8"
               id="use8200"
               width="100%"
               height="100%" />
          </g>
        </g>
        <g
           id="text_6">
          <!-- 100 -->
          <g
             transform="matrix(0.1,0,0,-0.1,457.48328,334.99844)"
             id="g8214">
            <defs
               id="defs8206">
              <path
                 id="DejaVuSans-31"
                 d="M 794,531 H 1825 V 4091 L 703,3866 v 575 l 1116,225 h 631 V 531 H 3481 V 0 H 794 Z"
                 transform="scale(0.015625)" />
            </defs>
            <use
               xlink:href="#DejaVuSans-31"
               id="use8208"
               x="0"
               y="0"
               width="100%"
               height="100%" />
            <use
               xlink:href="#DejaVuSans-30"
               x="63.623047"
               id="use8210"
               y="0"
               width="100%"
               height="100%" />
            <use
               xlink:href="#DejaVuSans-30"
               x="127.24609"
               id="use8212"
               y="0"
               width="100%"
               height="100%" />
          </g>
        </g>
      </g>
      <g
         id="xtick_7">
        <g
           id="line2d_7">
          <g
             id="g8220">
            <use
               xlink:href="#m8b74ea2cea"
               x="542.43243"
               y="320.39999"
               style="stroke:#000000;stroke-width:0.8"
               id="use8218"
               width="100%"
               height="100%" />
          </g>
        </g>
        <g
           id="text_7">
          <!-- 120 -->
          <g
             transform="matrix(0.1,0,0,-0.1,532.88868,334.99844)"
             id="g8229">
            <use
               xlink:href="#DejaVuSans-31"
               id="use8223"
               x="0"
               y="0"
               width="100%"
               height="100%" />
            <use
               xlink:href="#DejaVuSans-32"
               x="63.623047"
               id="use8225"
               y="0"
               width="100%"
               height="100%" />
            <use
               xlink:href="#DejaVuSans-30"
               x="127.24609"
               id="use8227"
               y="0"
               width="100%"
               height="100%" />
          </g>
        </g>
      </g>
      <g
         id="xtick_8">
        <g
           id="line2d_8">
          <g
             id="g8235">
            <use
               xlink:href="#m8b74ea2cea"
               x="617.83783"
               y="320.39999"
               style="stroke:#000000;stroke-width:0.8"
               id="use8233"
               width="100%"
               height="100%" />
          </g>
        </g>
        <g
           id="text_8">
          <!-- 140 -->
          <g
             transform="matrix(0.1,0,0,-0.1,608.29409,334.99844)"
             id="g8244">
            <use
               xlink:href="#DejaVuSans-31"
               id="use8238"
               x="0"
               y="0"
               width="100%"
               height="100%" />
            <use
               xlink:href="#DejaVuSans-34"
               x="63.623047"
               id="use8240"
               y="0"
               width="100%"
               height="100%" />
            <use
               xlink:href="#DejaVuSans-30"
               x="127.24609"
               id="use8242"
               y="0"
               width="100%"
               height="100%" />
          </g>
        </g>
      </g>
      <g
         id="text_9">
        <!-- fine-tuning step -->
        <g
           transform="matrix(0.1,0,0,-0.1,329.36719,348.67656)"
           id="g8293">
          <defs
             id="defs8259">
            <path
               id="DejaVuSans-66"
               d="m 2375,4863 v -479 h -550 q -309,0 -430,-125 -120,-125 -120,-450 v -309 h 947 V 3053 H 1275 V 0 H 697 V 3053 H 147 v 447 h 550 v 244 q 0,584 272,851 272,268 862,268 z"
               transform="scale(0.015625)" />
            <path
               id="DejaVuSans-69"
               d="m 603,3500 h 575 V 0 H 603 Z m 0,1363 h 575 V 4134 H 603 Z"
               transform="scale(0.015625)" />
            <path
               id="DejaVuSans-6e"
               d="M 3513,2113 V 0 h -575 v 2094 q 0,497 -194,743 -194,247 -581,247 -466,0 -735,-297 -269,-296 -269,-809 V 0 H 581 v 3500 h 578 v -544 q 207,316 486,472 280,156 646,156 603,0 912,-373 310,-373 310,-1098 z"
               transform="scale(0.015625)" />
            <path
               id="DejaVuSans-65"
               d="M 3597,1894 V 1613 H 953 q 38,-594 358,-905 320,-311 892,-311 331,0 642,81 311,81 618,244 V 178 Q 3153,47 2828,-22 2503,-91 2169,-91 1331,-91 842,396 353,884 353,1716 q 0,859 464,1363 464,505 1252,505 706,0 1117,-455 411,-454 411,-1235 z m -575,169 q -6,471 -264,752 -258,282 -683,282 -481,0 -770,-272 -289,-272 -333,-766 z"
               transform="scale(0.015625)" />
            <path
               id="DejaVuSans-2d"
               d="M 313,2009 H 1997 V 1497 H 313 Z"
               transform="scale(0.015625)" />
            <path
               id="DejaVuSans-74"
               d="M 1172,4494 V 3500 H 2356 V 3053 H 1172 V 1153 q 0,-428 117,-550 117,-122 477,-122 h 590 V 0 H 1766 Q 1100,0 847,248 594,497 594,1153 V 3053 H 172 v 447 h 422 v 994 z"
               transform="scale(0.015625)" />
            <path
               id="DejaVuSans-75"
               d="m 544,1381 v 2119 h 575 V 1403 q 0,-497 193,-746 194,-248 582,-248 465,0 735,297 271,297 271,810 v 1984 h 575 V 0 H 2900 V 538 Q 2691,219 2414,64 2138,-91 1772,-91 1169,-91 856,284 544,659 544,1381 Z m 1447,2203 z"
               transform="scale(0.015625)" />
            <path
               id="DejaVuSans-67"
               d="m 2906,1791 q 0,625 -258,968 -257,344 -723,344 -462,0 -720,-344 -258,-343 -258,-968 0,-622 258,-966 258,-344 720,-344 466,0 723,344 258,344 258,966 z M 3481,434 q 0,-893 -397,-1329 -396,-436 -1215,-436 -303,0 -572,45 -269,45 -522,139 v 559 q 253,-137 500,-202 247,-66 503,-66 566,0 847,295 281,295 281,892 V 616 Q 2728,306 2450,153 2172,0 1784,0 1141,0 747,490 353,981 353,1791 q 0,812 394,1302 394,491 1037,491 388,0 666,-153 278,-153 456,-462 v 531 h 575 z"
               transform="scale(0.015625)" />
            <path
               id="DejaVuSans-20"
               transform="scale(0.015625)"
               d="" />
            <path
               id="DejaVuSans-73"
               d="m 2834,3397 v -544 q -243,125 -506,187 -262,63 -544,63 -428,0 -642,-131 -214,-131 -214,-394 0,-200 153,-314 153,-114 616,-217 l 197,-44 q 612,-131 870,-370 258,-239 258,-667 0,-488 -386,-773 Q 2250,-91 1575,-91 1294,-91 989,-36 684,19 347,128 v 594 q 319,-166 628,-249 309,-82 613,-82 406,0 624,139 219,139 219,392 0,234 -158,359 -157,125 -692,241 l -200,47 q -534,112 -772,345 -237,233 -237,639 0,494 350,762 350,269 994,269 318,0 599,-47 282,-46 519,-140 z"
               transform="scale(0.015625)" />
            <path
               id="DejaVuSans-70"
               d="M 1159,525 V -1331 H 581 v 4831 h 578 v -531 q 182,312 458,463 277,152 661,152 638,0 1036,-506 399,-506 399,-1331 0,-825 -399,-1332 -398,-506 -1036,-506 -384,0 -661,152 -276,152 -458,464 z m 1957,1222 q 0,634 -261,995 -261,361 -717,361 -457,0 -718,-361 -261,-361 -261,-995 0,-634 261,-995 261,-361 718,-361 456,0 717,361 261,361 261,995 z"
               transform="scale(0.015625)" />
          </defs>
          <use
             xlink:href="#DejaVuSans-66"
             id="use8261"
             x="0"
             y="0"
             width="100%"
             height="100%" />
          <use
             xlink:href="#DejaVuSans-69"
             x="35.205078"
             id="use8263"
             y="0"
             width="100%"
             height="100%" />
          <use
             xlink:href="#DejaVuSans-6e"
             x="62.988281"
             id="use8265"
             y="0"
             width="100%"
             height="100%" />
          <use
             xlink:href="#DejaVuSans-65"
             x="126.36719"
             id="use8267"
             y="0"
             width="100%"
             height="100%" />
          <use
             xlink:href="#DejaVuSans-2d"
             x="187.89062"
             id="use8269"
             y="0"
             width="100%"
             height="100%" />
          <use
             xlink:href="#DejaVuSans-74"
             x="223.97461"
             id="use8271"
             y="0"
             width="100%"
             height="100%" />
          <use
             xlink:href="#DejaVuSans-75"
             x="263.18359"
             id="use8273"
             y="0"
             width="100%"
             height="100%" />
          <use
             xlink:href="#DejaVuSans-6e"
             x="326.5625"
             id="use8275"
             y="0"
             width="100%"
             height="100%" />
          <use
             xlink:href="#DejaVuSans-69"
             x="389.94141"
             id="use8277"
             y="0"
             width="100%"
             height="100%" />
          <use
             xlink:href="#DejaVuSans-6e"
             x="417.72461"
             id="use8279"
             y="0"
             width="100%"
             height="100%" />
          <use
             xlink:href="#DejaVuSans-67"
             x="481.10352"
             id="use8281"
             y="0"
             width="100%"
             height="100%" />
          <use
             xlink:href="#DejaVuSans-20"
             x="544.58008"
             id="use8283"
             y="0"
             width="100%"
             height="100%" />
          <use
             xlink:href="#DejaVuSans-73"
             x="576.36719"
             id="use8285"
             y="0"
             width="100%"
             height="100%" />
          <use
             xlink:href="#DejaVuSans-74"
             x="628.4668"
             id="use8287"
             y="0"
             width="100%"
             height="100%" />
          <use
             xlink:href="#DejaVuSans-65"
             x="667.67578"
             id="use8289"
             y="0"
             width="100%"
             height="100%" />
          <use
             xlink:href="#DejaVuSans-70"
             x="729.19922"
             id="use8291"
             y="0"
             width="100%"
             height="100%" />
        </g>
      </g>
    </g>
    <g
       id="matplotlib.axis_2">
      <g
         id="ytick_1">
        <g
           id="line2d_9">
          <defs
             id="defs8298">
            <path
               id="maf9725b31d"
               d="M 0,0 H -3.5"
               style="stroke:#000000;stroke-width:0.8" />
          </defs>
          <g
             id="g8302">
            <use
               xlink:href="#maf9725b31d"
               x="90"
               y="274.71988"
               style="stroke:#000000;stroke-width:0.8"
               id="use8300"
               width="100%"
               height="100%" />
          </g>
        </g>
        <g
           id="text_10">
          <!-- 0.5 -->
          <g
             transform="matrix(0.1,0,0,-0.1,67.096875,278.51909)"
             id="g8315">
            <defs
               id="defs8307">
              <path
                 id="DejaVuSans-2e"
                 d="m 684,794 h 660 V 0 H 684 Z"
                 transform="scale(0.015625)" />
              <path
                 id="DejaVuSans-35"
                 d="M 691,4666 H 3169 V 4134 H 1269 V 2991 q 137,47 274,70 138,23 276,23 781,0 1237,-428 457,-428 457,-1159 Q 3513,744 3044,326 2575,-91 1722,-91 1428,-91 1123,-41 819,9 494,109 v 635 q 281,-153 581,-228 300,-75 634,-75 541,0 856,284 316,284 316,772 0,487 -316,771 -315,285 -856,285 -253,0 -505,-56 -251,-56 -513,-175 z"
                 transform="scale(0.015625)" />
            </defs>
            <use
               xlink:href="#DejaVuSans-30"
               id="use8309"
               x="0"
               y="0"
               width="100%"
               height="100%" />
            <use
               xlink:href="#DejaVuSans-2e"
               x="63.623047"
               id="use8311"
               y="0"
               width="100%"
               height="100%" />
            <use
               xlink:href="#DejaVuSans-35"
               x="95.410156"
               id="use8313"
               y="0"
               width="100%"
               height="100%" />
          </g>
        </g>
      </g>
      <g
         id="ytick_2">
        <g
           id="line2d_10">
          <g
             id="g8321">
            <use
               xlink:href="#maf9725b31d"
               x="90"
               y="223.41693"
               style="stroke:#000000;stroke-width:0.8"
               id="use8319"
               width="100%"
               height="100%" />
          </g>
        </g>
        <g
           id="text_11">
          <!-- 1.0 -->
          <g
             transform="matrix(0.1,0,0,-0.1,67.096875,227.21616)"
             id="g8330">
            <use
               xlink:href="#DejaVuSans-31"
               id="use8324"
               x="0"
               y="0"
               width="100%"
               height="100%" />
            <use
               xlink:href="#DejaVuSans-2e"
               x="63.623047"
               id="use8326"
               y="0"
               width="100%"
               height="100%" />
            <use
               xlink:href="#DejaVuSans-30"
               x="95.410156"
               id="use8328"
               y="0"
               width="100%"
               height="100%" />
          </g>
        </g>
      </g>
      <g
         id="ytick_3">
        <g
           id="line2d_11">
          <g
             id="g8336">
            <use
               xlink:href="#maf9725b31d"
               x="90"
               y="172.11401"
               style="stroke:#000000;stroke-width:0.8"
               id="use8334"
               width="100%"
               height="100%" />
          </g>
        </g>
        <g
           id="text_12">
          <!-- 1.5 -->
          <g
             transform="matrix(0.1,0,0,-0.1,67.096875,175.91322)"
             id="g8345">
            <use
               xlink:href="#DejaVuSans-31"
               id="use8339"
               x="0"
               y="0"
               width="100%"
               height="100%" />
            <use
               xlink:href="#DejaVuSans-2e"
               x="63.623047"
               id="use8341"
               y="0"
               width="100%"
               height="100%" />
            <use
               xlink:href="#DejaVuSans-35"
               x="95.410156"
               id="use8343"
               y="0"
               width="100%"
               height="100%" />
          </g>
        </g>
      </g>
      <g
         id="ytick_4">
        <g
           id="line2d_12">
          <g
             id="g8351">
            <use
               xlink:href="#maf9725b31d"
               x="90"
               y="120.81107"
               style="stroke:#000000;stroke-width:0.8"
               id="use8349"
               width="100%"
               height="100%" />
          </g>
        </g>
        <g
           id="text_13">
          <!-- 2.0 -->
          <g
             transform="matrix(0.1,0,0,-0.1,67.096875,124.61029)"
             id="g8360">
            <use
               xlink:href="#DejaVuSans-32"
               id="use8354"
               x="0"
               y="0"
               width="100%"
               height="100%" />
            <use
               xlink:href="#DejaVuSans-2e"
               x="63.623047"
               id="use8356"
               y="0"
               width="100%"
               height="100%" />
            <use
               xlink:href="#DejaVuSans-30"
               x="95.410156"
               id="use8358"
               y="0"
               width="100%"
               height="100%" />
          </g>
        </g>
      </g>
      <g
         id="ytick_5">
        <g
           id="line2d_13">
          <g
             id="g8366">
            <use
               xlink:href="#maf9725b31d"
               x="90"
               y="69.508141"
               style="stroke:#000000;stroke-width:0.8"
               id="use8364"
               width="100%"
               height="100%" />
          </g>
        </g>
        <g
           id="text_14">
          <!-- 2.5 -->
          <g
             transform="matrix(0.1,0,0,-0.1,67.096875,73.307362)"
             id="g8375">
            <use
               xlink:href="#DejaVuSans-32"
               id="use8369"
               x="0"
               y="0"
               width="100%"
               height="100%" />
            <use
               xlink:href="#DejaVuSans-2e"
               x="63.623047"
               id="use8371"
               y="0"
               width="100%"
               height="100%" />
            <use
               xlink:href="#DejaVuSans-35"
               x="95.410156"
               id="use8373"
               y="0"
               width="100%"
               height="100%" />
          </g>
        </g>
      </g>
      <g
         id="text_15">
        <!-- loss -->
        <g
           transform="matrix(0,-0.1,-0.1,0,61.017187,191.45781)"
           id="g8391">
          <defs
             id="defs8381">
            <path
               id="DejaVuSans-6c"
               d="m 603,4863 h 575 V 0 H 603 Z"
               transform="scale(0.015625)" />
            <path
               id="DejaVuSans-6f"
               d="m 1959,3097 q -462,0 -731,-361 -269,-361 -269,-989 0,-628 267,-989 268,-361 733,-361 460,0 728,362 269,363 269,988 0,622 -269,986 -268,364 -728,364 z m 0,487 q 750,0 1178,-488 429,-487 429,-1349 Q 3566,888 3137,398 2709,-91 1959,-91 1206,-91 779,398 353,888 353,1747 q 0,862 426,1349 427,488 1180,488 z"
               transform="scale(0.015625)" />
          </defs>
          <use
             xlink:href="#DejaVuSans-6c"
             id="use8383"
             x="0"
             y="0"
             width="100%"
             height="100%" />
          <use
             xlink:href="#DejaVuSans-6f"
             x="27.783203"
             id="use8385"
             y="0"
             width="100%"
             height="100%" />
          <use
             xlink:href="#DejaVuSans-73"
             x="88.964844"
             id="use8387"
             y="0"
             width="100%"
             height="100%" />
          <use
             xlink:href="#DejaVuSans-73"
             x="141.06445"
             id="use8389"
             y="0"
             width="100%"
             height="100%" />
        </g>
      </g>
    </g>
    <g
       id="line2d_14">
      <path
         d="m 93.77027,130.96905 3.770271,-19.77214 3.770269,-3.63225 3.77027,83.96238 3.77027,9.5013 3.77027,-65.86271 3.77027,83.97264 3.77027,-55.21221 3.77027,48.66596 3.77027,69.06401 3.77027,-82.50538 3.77027,48.61466 3.77027,-24.9127 3.77027,-52.56499 3.77027,-75.81547 3.77027,74.69707 3.77027,57.40798 3.77027,-115.45212 3.77027,122.66531 3.77027,53.76547 3.77028,-84.87557 3.77027,-39.31856 3.77027,3.73485 3.77027,0.31808 3.77027,-6.76173 3.77027,-104.432246 3.77027,77.847066 3.77027,87.44072 3.77027,24.32785 3.77027,-86.507 3.77027,85.4912 3.77027,-12.6513 3.77027,-72.99381 3.77027,76.60553 3.77027,3.49886 3.77027,-12.69234 3.77027,-74.98437 3.77027,-1.83664 3.77027,61.05049 3.77027,74.77915 3.77027,-81.9 3.77027,-4.09397 3.77027,-63.80033 3.77027,77.44691 3.77027,-48.3171 3.77027,4.13501 3.77027,48.47101 3.77027,13.06173 3.77027,12.57948 3.77027,-67.98665 3.77027,48.32736 3.77027,25.16922 3.77027,-34.45505 3.77028,-25.76433 3.77026,-10.49658 3.77027,25.9285 3.77027,-24.964 3.77028,-15.19593 3.77027,12.0254 3.77027,-0.0616 3.77027,42.5917 3.77027,7.45944 3.77027,3.13974 3.77027,-45.73143 3.77027,71.0443 3.77027,-14.54951 3.77027,-52.61629 3.77027,45.41335 3.77027,-17.78159 3.77027,-78.42166 3.77027,46.94218 3.77027,-8.60863 3.77027,1.98029 3.77027,32.34137 3.77027,85.55277 3.77027,-66.85798 3.77027,61.44039 3.77027,-37.54349 3.77027,-4.70961 3.77027,-93.51498 3.77027,82.51563 3.77027,67.01189 3.77027,-221.218237 3.77027,137.861237 3.77027,-1.76482 3.77027,-8.36238 3.77027,-0.65668 3.77027,-24.49202 3.77027,50.3487 3.77027,-53.22166 3.77028,64.17997 3.77026,-0.32834 3.77027,-127.66222 3.77027,36.40457 3.77028,82.55667 3.77027,10.57867 3.77027,-84.5575 3.77027,35.38877 3.77027,27.32394 3.77027,29.69414 3.77027,-62.05603 3.77027,21.29072 3.77027,39.94446 3.77027,-6.65912 3.77027,-16.12964 3.77027,-40.90896 3.77027,3.4886 3.77027,103.78583 3.77027,-105.56091 3.77027,11.12247 3.77027,-107.961887 3.77027,102.072317 3.77027,24.89218 3.77027,-0.10261 3.77027,-63.08208 3.77027,80.65847 3.77027,-3.51938 3.77027,-21.82427 3.77027,-32.16694 3.77027,-5.87932 3.77027,77.42639 3.77027,-17.28909 3.77027,16.79658 3.77027,-30.96645 3.77027,-27.00586 3.77027,29.22215 3.77027,-35.46059 3.77028,-5.92036 3.77026,41.53486 3.77027,1.21075 3.77027,11.71758 3.77028,-51.93908 3.77027,12.35374 3.77027,-41.92475 3.77027,92.49918 3.77027,-13.6671 7.54054,22.36808 3.77027,34.67052 3.77027,15.89365 3.77027,-188.30228 v 0"
         clip-path="url(#p0acafced18)"
         style="fill:none;stroke:#1f77b4;stroke-width:1.5;stroke-linecap:square"
         id="path8395" />
    </g>
    <g
       id="line2d_15">
      <path
         d="m 127.7027,129.87117 37.7027,87.60489 37.70271,-25.5386 37.7027,29.91987 37.7027,-44.65407 37.70271,47.93746 37.7027,-53.01645 37.7027,-29.50945 37.7027,52.5342 37.70271,47.486 37.7027,-11.74838 37.7027,-175.08664 37.7027,211.94267 37.70271,0.24625"
         clip-path="url(#p0acafced18)"
         style="fill:none;stroke:#ff7f0e;stroke-width:1.5;stroke-linecap:square"
         id="path8398" />
      <defs
         id="defs8401">
        <path
           id="m64e8a23cc3"
           d="M 0,3 C 0.795609,3 1.55874,2.683901 2.12132,2.12132 2.683901,1.55874 3,0.795609 3,0 3,-0.795609 2.683901,-1.55874 2.12132,-2.12132 1.55874,-2.683901 0.795609,-3 0,-3 -0.795609,-3 -1.55874,-2.683901 -2.12132,-2.12132 -2.683901,-1.55874 -3,-0.795609 -3,0 -3,0.795609 -2.683901,1.55874 -2.12132,2.12132 -1.55874,2.683901 -0.795609,3 0,3 Z"
           style="stroke:#ff7f0e" />
      </defs>
      <g
         clip-path="url(#p0acafced18)"
         id="g8431">
        <use
           xlink:href="#m64e8a23cc3"
           x="127.70271"
           y="129.87117"
           style="fill:#ff7f0e;stroke:#ff7f0e"
           id="use8403"
           width="100%"
           height="100%" />
        <use
           xlink:href="#m64e8a23cc3"
           x="165.40541"
           y="217.47606"
           style="fill:#ff7f0e;stroke:#ff7f0e"
           id="use8405"
           width="100%"
           height="100%" />
        <use
           xlink:href="#m64e8a23cc3"
           x="203.10811"
           y="191.93745"
           style="fill:#ff7f0e;stroke:#ff7f0e"
           id="use8407"
           width="100%"
           height="100%" />
        <use
           xlink:href="#m64e8a23cc3"
           x="240.81081"
           y="221.85733"
           style="fill:#ff7f0e;stroke:#ff7f0e"
           id="use8409"
           width="100%"
           height="100%" />
        <use
           xlink:href="#m64e8a23cc3"
           x="278.51352"
           y="177.20326"
           style="fill:#ff7f0e;stroke:#ff7f0e"
           id="use8411"
           width="100%"
           height="100%" />
        <use
           xlink:href="#m64e8a23cc3"
           x="316.21622"
           y="225.14072"
           style="fill:#ff7f0e;stroke:#ff7f0e"
           id="use8413"
           width="100%"
           height="100%" />
        <use
           xlink:href="#m64e8a23cc3"
           x="353.91891"
           y="172.12427"
           style="fill:#ff7f0e;stroke:#ff7f0e"
           id="use8415"
           width="100%"
           height="100%" />
        <use
           xlink:href="#m64e8a23cc3"
           x="391.62161"
           y="142.61482"
           style="fill:#ff7f0e;stroke:#ff7f0e"
           id="use8417"
           width="100%"
           height="100%" />
        <use
           xlink:href="#m64e8a23cc3"
           x="429.32431"
           y="195.14902"
           style="fill:#ff7f0e;stroke:#ff7f0e"
           id="use8419"
           width="100%"
           height="100%" />
        <use
           xlink:href="#m64e8a23cc3"
           x="467.02704"
           y="242.63501"
           style="fill:#ff7f0e;stroke:#ff7f0e"
           id="use8421"
           width="100%"
           height="100%" />
        <use
           xlink:href="#m64e8a23cc3"
           x="504.72974"
           y="230.88664"
           style="fill:#ff7f0e;stroke:#ff7f0e"
           id="use8423"
           width="100%"
           height="100%" />
        <use
           xlink:href="#m64e8a23cc3"
           x="542.43243"
           y="55.799999"
           style="fill:#ff7f0e;stroke:#ff7f0e"
           id="use8425"
           width="100%"
           height="100%" />
        <use
           xlink:href="#m64e8a23cc3"
           x="580.13513"
           y="267.74268"
           style="fill:#ff7f0e;stroke:#ff7f0e"
           id="use8427"
           width="100%"
           height="100%" />
        <use
           xlink:href="#m64e8a23cc3"
           x="617.83783"
           y="267.98892"
           style="fill:#ff7f0e;stroke:#ff7f0e"
           id="use8429"
           width="100%"
           height="100%" />
      </g>
    </g>
    <g
       id="patch_3">
      <path
         d="M 90,320.4 V 43.2"
         style="fill:none;stroke:#000000;stroke-width:0.8;stroke-linecap:square;stroke-linejoin:miter"
         id="path8434" />
    </g>
    <g
       id="patch_4">
      <path
         d="M 648,320.4 V 43.2"
         style="fill:none;stroke:#000000;stroke-width:0.8;stroke-linecap:square;stroke-linejoin:miter"
         id="path8437" />
    </g>
    <g
       id="patch_5">
      <path
         d="M 90,320.4 H 648"
         style="fill:none;stroke:#000000;stroke-width:0.8;stroke-linecap:square;stroke-linejoin:miter"
         id="path8440" />
    </g>
    <g
       id="patch_6">
      <path
         d="M 90,43.2 H 648"
         style="fill:none;stroke:#000000;stroke-width:0.8;stroke-linecap:square;stroke-linejoin:miter"
         id="path8443" />
    </g>
    <g
       id="legend_1">
      <g
         id="patch_7">
        <path
           d="M 537.27188,80.55625 H 641 q 2,0 2,-2 V 50.2 q 0,-2 -2,-2 H 537.27188 q -2,0 -2,2 v 28.35625 q 0,2 2,2 z"
           style="opacity:0.8;fill:#ffffff;stroke:#cccccc;stroke-linejoin:miter"
           id="path8446" />
      </g>
      <g
         id="line2d_16">
        <path
           d="m 539.27188,56.298437 h 10 10"
           style="fill:none;stroke:#1f77b4;stroke-width:1.5;stroke-linecap:square"
           id="path8449" />
      </g>
      <g
         id="text_16">
        <!-- training loss -->
        <g
           transform="matrix(0.1,0,0,-0.1,567.27188,59.798437)"
           id="g8482">
          <defs
             id="defs8454">
            <path
               id="DejaVuSans-72"
               d="m 2631,2963 q -97,56 -211,82 -114,27 -251,27 -488,0 -749,-317 -261,-317 -261,-911 V 0 H 581 v 3500 h 578 v -544 q 182,319 472,473 291,155 707,155 59,0 131,-8 72,-7 159,-23 z"
               transform="scale(0.015625)" />
            <path
               id="DejaVuSans-61"
               d="m 2194,1759 q -697,0 -966,-159 -269,-159 -269,-544 0,-306 202,-486 202,-179 548,-179 479,0 768,339 289,339 289,901 v 128 z m 1147,238 V 0 H 2766 V 531 Q 2569,213 2275,61 1981,-91 1556,-91 q -537,0 -855,302 -317,302 -317,808 0,590 395,890 396,300 1180,300 h 807 v 57 q 0,397 -261,614 -261,217 -733,217 -300,0 -585,-72 -284,-72 -546,-216 v 532 q 315,122 612,182 297,61 578,61 760,0 1135,-394 375,-393 375,-1193 z"
               transform="scale(0.015625)" />
          </defs>
          <use
             xlink:href="#DejaVuSans-74"
             id="use8456"
             x="0"
             y="0"
             width="100%"
             height="100%" />
          <use
             xlink:href="#DejaVuSans-72"
             x="39.208984"
             id="use8458"
             y="0"
             width="100%"
             height="100%" />
          <use
             xlink:href="#DejaVuSans-61"
             x="80.322266"
             id="use8460"
             y="0"
             width="100%"
             height="100%" />
          <use
             xlink:href="#DejaVuSans-69"
             x="141.60156"
             id="use8462"
             y="0"
             width="100%"
             height="100%" />
          <use
             xlink:href="#DejaVuSans-6e"
             x="169.38477"
             id="use8464"
             y="0"
             width="100%"
             height="100%" />
          <use
             xlink:href="#DejaVuSans-69"
             x="232.76367"
             id="use8466"
             y="0"
             width="100%"
             height="100%" />
          <use
             xlink:href="#DejaVuSans-6e"
             x="260.54688"
             id="use8468"
             y="0"
             width="100%"
             height="100%" />
          <use
             xlink:href="#DejaVuSans-67"
             x="323.92578"
             id="use8470"
             y="0"
             width="100%"
             height="100%" />
          <use
             xlink:href="#DejaVuSans-20"
             x="387.40234"
             id="use8472"
             y="0"
             width="100%"
             height="100%" />
          <use
             xlink:href="#DejaVuSans-6c"
             x="419.18945"
             id="use8474"
             y="0"
             width="100%"
             height="100%" />
          <use
             xlink:href="#DejaVuSans-6f"
             x="446.97266"
             id="use8476"
             y="0"
             width="100%"
             height="100%" />
          <use
             xlink:href="#DejaVuSans-73"
             x="508.1543"
             id="use8478"
             y="0"
             width="100%"
             height="100%" />
          <use
             xlink:href="#DejaVuSans-73"
             x="560.25391"
             id="use8480"
             y="0"
             width="100%"
             height="100%" />
        </g>
      </g>
      <g
         id="line2d_17">
        <path
           d="m 539.27188,70.976562 h 10 10"
           style="fill:none;stroke:#ff7f0e;stroke-width:1.5;stroke-linecap:square"
           id="path8485" />
        <g
           id="g8489">
          <use
             xlink:href="#m64e8a23cc3"
             x="549.27185"
             y="70.976562"
             style="fill:#ff7f0e;stroke:#ff7f0e"
             id="use8487"
             width="100%"
             height="100%" />
        </g>
      </g>
      <g
         id="text_17">
        <!-- validation loss -->
        <g
           transform="matrix(0.1,0,0,-0.1,567.27188,74.476562)"
           id="g8526">
          <defs
             id="defs8494">
            <path
               id="DejaVuSans-76"
               d="M 191,3500 H 800 L 1894,563 2988,3500 h 609 L 2284,0 h -781 z"
               transform="scale(0.015625)" />
            <path
               id="DejaVuSans-64"
               d="m 2906,2969 v 1894 h 575 V 0 H 2906 V 525 Q 2725,213 2448,61 2172,-91 1784,-91 1150,-91 751,415 353,922 353,1747 q 0,825 398,1331 399,506 1033,506 388,0 664,-152 277,-151 458,-463 z M 947,1747 q 0,-634 261,-995 261,-361 717,-361 456,0 718,361 263,361 263,995 0,634 -263,995 -262,361 -718,361 -456,0 -717,-361 -261,-361 -261,-995 z"
               transform="scale(0.015625)" />
          </defs>
          <use
             xlink:href="#DejaVuSans-76"
             id="use8496"
             x="0"
             y="0"
             width="100%"
             height="100%" />
          <use
             xlink:href="#DejaVuSans-61"
             x="59.179688"
             id="use8498"
             y="0"
             width="100%"
             height="100%" />
          <use
             xlink:href="#DejaVuSans-6c"
             x="120.45898"
             id="use8500"
             y="0"
             width="100%"
             height="100%" />
          <use
             xlink:href="#DejaVuSans-69"
             x="148.24219"
             id="use8502"
             y="0"
             width="100%"
             height="100%" />
          <use
             xlink:href="#DejaVuSans-64"
             x="176.02539"
             id="use8504"
             y="0"
             width="100%"
             height="100%" />
          <use
             xlink:href="#DejaVuSans-61"
             x="239.50195"
             id="use8506"
             y="0"
             width="100%"
             height="100%" />
          <use
             xlink:href="#DejaVuSans-74"
             x="300.78125"
             id="use8508"
             y="0"
             width="100%"
             height="100%" />
          <use
             xlink:href="#DejaVuSans-69"
             x="339.99023"
             id="use8510"
             y="0"
             width="100%"
             height="100%" />
          <use
             xlink:href="#DejaVuSans-6f"
             x="367.77344"
             id="use8512"
             y="0"
             width="100%"
             height="100%" />
          <use
             xlink:href="#DejaVuSans-6e"
             x="428.95508"
             id="use8514"
             y="0"
             width="100%"
             height="100%" />
          <use
             xlink:href="#DejaVuSans-20"
             x="492.33398"
             id="use8516"
             y="0"
             width="100%"
             height="100%" />
          <use
             xlink:href="#DejaVuSans-6c"
             x="524.12109"
             id="use8518"
             y="0"
             width="100%"
             height="100%" />
          <use
             xlink:href="#DejaVuSans-6f"
             x="551.9043"
             id="use8520"
             y="0"
             width="100%"
             height="100%" />
          <use
             xlink:href="#DejaVuSans-73"
             x="613.08594"
             id="use8522"
             y="0"
             width="100%"
             height="100%" />
          <use
             xlink:href="#DejaVuSans-73"
             x="665.18555"
             id="use8524"
             y="0"
             width="100%"
             height="100%" />
        </g>
      </g>
    </g>
  </g>
  <defs
     id="defs8535">
    <clipPath
       id="p0acafced18">
      <rect
         x="90"
         y="43.200001"
         width="558"
         height="277.20001"
         id="rect8532" />
    </clipPath>
  </defs>
</svg>
